<?xml version="1.0" encoding="UTF-8" standalone="no"?>
<!-- Created with Inkscape (http://www.inkscape.org/) -->

<svg
   width="361.96805"
   height="186.52211"
   viewBox="0 0 361.96804 186.52211"
   version="1.1"
   id="svg5"
   sodipodi:docname="car.svg"
   inkscape:version="1.2.2 (732a01da63, 2022-12-09)"
   xmlns:inkscape="http://www.inkscape.org/namespaces/inkscape"
   xmlns:sodipodi="http://sodipodi.sourceforge.net/DTD/sodipodi-0.dtd"
   xmlns="http://www.w3.org/2000/svg"
   xmlns:svg="http://www.w3.org/2000/svg">
  <sodipodi:namedview
     id="namedview2922"
     pagecolor="#ffffff"
     bordercolor="#000000"
     borderopacity="0.25"
     inkscape:showpageshadow="2"
     inkscape:pageopacity="0.0"
     inkscape:pagecheckerboard="0"
     inkscape:deskcolor="#d1d1d1"
     showgrid="false"
     inkscape:zoom="0.65425176"
     inkscape:cx="-94.764743"
     inkscape:cy="93.236279"
     inkscape:window-width="1680"
     inkscape:window-height="987"
     inkscape:window-x="-8"
     inkscape:window-y="-8"
     inkscape:window-maximized="1"
     inkscape:current-layer="svg5" />
  <defs
     id="defs2" />
  <path
     d="M 31.355069,40.582539 H 155.97607 c 3.432,0.001 6.215,27.318 6.215,61.016001 v 195.728 c 0,33.698 -2.783,61.015 -6.215,61.016 H 31.355069 c -3.432,-10e-4 -6.215,-27.318 -6.215,-61.016 v -195.728 c 0,-33.698001 2.783,-61.015001 6.215,-61.016001 z"
     style="fill:#ff0000;stroke:#000000;stroke-width:6;stroke-miterlimit:5.1"
     id="rect799"
     transform="rotate(-90,93.571735,92.946224)" />
  <path
     d="m 2.995855,69.66232 h 19.475 v 66.666 h -19.475 z"
     style="fill:#280b0b;stroke:#000000;stroke-width:6;stroke-miterlimit:5.1"
     id="rect801"
     transform="rotate(-90,93.571735,92.946224)" />
  <path
     d="m 164.04296,70.03648 h 19.475 v 66.666 h -19.475 z"
     style="fill:#280b0b;stroke:#000000;stroke-width:6;stroke-miterlimit:5.1"
     id="rect801-6"
     transform="rotate(-90,93.571735,92.946224)" />
  <path
     d="m 163.29391,252.05648 h 19.475 v 66.666 h -19.475 z"
     style="fill:#241c1c;stroke:#000000;stroke-width:6;stroke-miterlimit:5.1"
     id="rect801-6-8"
     transform="rotate(-90,93.571735,92.946224)" />
  <path
     d="m 3.744963,252.05627 h 19.475 v 66.666 h -19.475 z"
     style="fill:#241c1c;stroke:#000000;stroke-width:6;stroke-miterlimit:5.1"
     id="rect801-6-1"
     transform="rotate(-90,93.571735,92.946224)" />
  <path
     d="m 58.681156,2.996181 h 6.741 v 35.2053 h -6.741 z"
     style="fill:#2b0000;stroke:#000000;stroke-width:6;stroke-miterlimit:5.1"
     id="rect860"
     transform="rotate(-90,93.571735,92.946224)" />
  <path
     d="m 115.72875,2.374489 h 6.741 v 35.2051 h -6.741 z"
     style="fill:#2b0000;stroke:#000000;stroke-width:6;stroke-miterlimit:5.1"
     id="rect860-9"
     transform="rotate(-90,93.571735,92.946224)" />
  <path
     d="m 45.327051,193.01015 h 97.365999 v 65.157 H 45.327051 Z"
     style="fill:#280b0b;stroke:#000000;stroke-width:6.75978;stroke-miterlimit:5.1"
     id="rect886"
     transform="rotate(-90,93.571735,92.946224)" />
  <path
     d="M 44.680017,70.769857 H 143.58702 V 109.00386 H 44.680017 Z"
     style="fill:#280b0b;stroke:#000000;stroke-width:5.21897;stroke-miterlimit:5.1"
     id="rect886-1"
     transform="rotate(-90,93.571735,92.946224)" />
  <path
     d="m 59.55007,332.57948 c -2.878,0 -5.473,1.551 -6.574,3.93 -1.102,2.38 -0.493,5.118 1.542,6.939 2.035,1.821 5.096,2.366 7.755,1.38 2.659,-0.985 4.393,-3.307 4.393,-5.882 0,-3.516 -3.186,-6.367 -7.116,-6.367 z"
     style="fill:#280b0b;stroke:#000000;stroke-width:6;stroke-miterlimit:5.1"
     id="path1568"
     transform="rotate(-90,93.571735,92.946224)" />
  <path
     d="m 122.09537,333.20159 c -2.878,0 -5.473,1.551 -6.574,3.93 -1.102,2.38 -0.493,5.118 1.542,6.939 2.035,1.821 5.096,2.366 7.755,1.38 2.659,-0.985 4.393,-3.307 4.393,-5.882 0,-1.689 -0.75,-3.308 -2.084,-4.502 -1.335,-1.194 -3.145,-1.865 -5.032,-1.865 z"
     style="fill:#280b0b;stroke:#000000;stroke-width:6;stroke-miterlimit:5.1"
     id="path1568-9"
     transform="rotate(-90,93.571735,92.946224)" />
</svg>
